        <svg 
            width="800" 
            height="500" 
            xmlns="http://www.w3.org/2000/svg">
            
            <!--Gradientes de cores-->
            <defs>
                <linearGradient y2="1" x2="0.5" y1="0.4" x1="0.5" id="gradient1">
                    <stop offset="0" stop-opacity="1" stop-color="#ff6699"/>
                    <stop offset="1" stop-opacity="1" stop-color="#ff80aa"/>
                </linearGradient>
                <linearGradient y2="1" x2="0.5" y1="0" x1="0.5" id="gradient2">
                    <stop offset="0" stop-opacity="1" stop-color="#ff0066"/>
                    <stop offset="1" stop-opacity="1" stop-color="#ff6699"/>
                </linearGradient>
                <linearGradient y2="0.5" x2="1" y1="0.5" x1="0" id="gradient3">
                    <stop offset="0" stop-opacity="1" stop-color="#a64dff"/>
                    <stop offset="0.4" stop-opacity="1" stop-color="#e6b3ff"/>
                    <stop offset="0.6" stop-opacity="1" stop-color="#e6b3ff"/>
                    <stop offset="1" stop-opacity="1" stop-color="#c44dff"/>
                </linearGradient>
            </defs>

            <!--Fundo-->
            <rect height="500" width="800" y="0" x="0" opacity = "0.5" fill="black"/>

            <!--1.Holofote-->
            <circle cy="30" cx="80" r="5" opacity = "1" fill="white"/>
            <circle cy="30" cx="80" r="7" opacity = "0.9" fill="white"/>
            <circle cy="30" cx="80" r="9" opacity = "0.8" fill="white"/>
            <circle cy="30" cx="80" r="11" opacity = "0.7" fill="white"/>
            <circle cy="30" cx="80" r="13" opacity = "0.6" fill="white"/>
            <circle cy="30" cx="80" r="15" opacity = "0.5" fill="white"/>
            <circle cy="30" cx="80" r="17" opacity = "0.4" fill="white"/>
            <circle cy="30" cx="80" r="19" opacity = "0.3" fill="white"/>
            <circle cy="30" cx="80" r="21" opacity = "0.2" fill="white"/>
            <circle cy="30" cx="80" r="23" opacity = "0.1" fill="white"/>
            <!--2.Holofote-->   
            <circle cy="30" cx="200" r="5" opacity = "1" fill="white"/>
            <circle cy="30" cx="200" r="7" opacity = "0.9" fill="white"/>
            <circle cy="30" cx="200" r="9" opacity = "0.8" fill="white"/>
            <circle cy="30" cx="200" r="11" opacity = "0.7" fill="white"/>
            <circle cy="30" cx="200" r="13" opacity = "0.6" fill="white"/>
            <circle cy="30" cx="200" r="15" opacity = "0.5" fill="white"/>
            <circle cy="30" cx="200" r="17" opacity = "0.4" fill="white"/>
            <circle cy="30" cx="200" r="19" opacity = "0.3" fill="white"/>
            <circle cy="30" cx="200" r="21" opacity = "0.2" fill="white"/>
            <circle cy="30" cx="200" r="23" opacity = "0.1" fill="white"/>
            <!--3.Holofote-->  
            <circle cy="30" cx="320" r="5" opacity = "1" fill="white"/>
            <circle cy="30" cx="320" r="7" opacity = "0.9" fill="white"/>
            <circle cy="30" cx="320" r="9" opacity = "0.8" fill="white"/>
            <circle cy="30" cx="320" r="11" opacity = "0.7" fill="white"/>
            <circle cy="30" cx="320" r="13" opacity = "0.6" fill="white"/>
            <circle cy="30" cx="320" r="15" opacity = "0.5" fill="white"/>
            <circle cy="30" cx="320" r="17" opacity = "0.4" fill="white"/>
            <circle cy="30" cx="320" r="19" opacity = "0.3" fill="white"/>
            <circle cy="30" cx="320" r="21" opacity = "0.2" fill="white"/>
            <circle cy="30" cx="320" r="23" opacity = "0.1" fill="white"/>
            <!--4.Holofote-->      
            <circle cy="30" cx="490" r="5" opacity = "1" fill="white"/>
            <circle cy="30" cx="490" r="7" opacity = "0.9" fill="white"/>
            <circle cy="30" cx="490" r="9" opacity = "0.8" fill="white"/>
            <circle cy="30" cx="490" r="11" opacity = "0.7" fill="white"/>
            <circle cy="30" cx="490" r="13" opacity = "0.6" fill="white"/>
            <circle cy="30" cx="490" r="15" opacity = "0.5" fill="white"/>
            <circle cy="30" cx="490" r="17" opacity = "0.4" fill="white"/>
            <circle cy="30" cx="490" r="19" opacity = "0.3" fill="white"/>
            <circle cy="30" cx="490" r="21" opacity = "0.2" fill="white"/>
            <circle cy="30" cx="490" r="23" opacity = "0.1" fill="white"/>
            <!--5.Holofote-->  
            <circle cy="30" cx="600" r="5" opacity = "1" fill="white"/>
            <circle cy="30" cx="600" r="7" opacity = "0.9" fill="white"/>
            <circle cy="30" cx="600" r="9" opacity = "0.8" fill="white"/>
            <circle cy="30" cx="600" r="11" opacity = "0.7" fill="white"/>
            <circle cy="30" cx="600" r="13" opacity = "0.6" fill="white"/>
            <circle cy="30" cx="600" r="15" opacity = "0.5" fill="white"/>
            <circle cy="30" cx="600" r="17" opacity = "0.4" fill="white"/>
            <circle cy="30" cx="600" r="19" opacity = "0.3" fill="white"/>
            <circle cy="30" cx="600" r="21" opacity = "0.2" fill="white"/>
            <circle cy="30" cx="600" r="23" opacity = "0.1" fill="white"/>
            <!--6.Holofote-->  
            <circle cy="30" cx="710" r="5" opacity = "1" fill="white"/>
            <circle cy="30" cx="710" r="7" opacity = "0.9" fill="white"/>
            <circle cy="30" cx="710" r="9" opacity = "0.8" fill="white"/>
            <circle cy="30" cx="710" r="11" opacity = "0.7" fill="white"/>
            <circle cy="30" cx="710" r="13" opacity = "0.6" fill="white"/>
            <circle cy="30" cx="710" r="15" opacity = "0.5" fill="white"/>
            <circle cy="30" cx="710" r="17" opacity = "0.4" fill="white"/>
            <circle cy="30" cx="710" r="19" opacity = "0.3" fill="white"/>
            <circle cy="30" cx="710" r="21" opacity = "0.2" fill="white"/>
            <circle cy="30" cx="710" r="23" opacity = "0.1" fill="white"/>
            
            <!--1.Estrela-->
            <polygon points="200,100 160,208 260,138 140,138 240,208" style="fill:black; stroke:black; stroke-width:15; opacity:0.7" />
            <polygon points="200,100 160,208 260,138 140,138 240,208" style="fill:black; stroke:none; stroke-width:15" />
            <text x="175" y="160" fill="yellow">B1Gpp</text>
            <text x="176.5" y="161.5" fill="yellow" opacity = "0.5">B1Gpp</text>

            <!--2.Estrela-->
            <polygon points="600,100 560,208 660,138 540,138 640,208" style="fill:black; stroke:black; stroke-width:15; opacity:0.7" />
            <polygon points="600,100 560,208 660,138 540,138 640,208" style="fill:black; stroke:none; stroke-width:15" />
            <text x="575" y="162" fill="yellow">SHOW</text>
            <text x="576.5" y="163.5" fill="yellow" opacity = "0.5">SHOW</text>


            <!--Chão-->
            <rect height="130" width="800" y="370" x="0" opacity = "0.8" fill="black"/>
            <!--1.Coluna de som-->
            <rect height="110" width="60" y="295" x="50" rx="7" ry="7" stroke = "white" opacity = "1" fill="#204060"/>
            <circle cy="327" cx="80" r="20" fill="white"/>
            <circle cy="327" cx="80" r="15" fill="white" stroke = "#204060"/>
            <circle cy="327" cx="80" r="3" fill="white" stroke = "#204060"/>
            <circle cy="373" cx="80" r="18" fill="white"/>
            <circle cy="373" cx="80" r="13" fill="white" stroke = "#204060"/>
            <circle cy="373" cx="80" r="3" fill="white" stroke = "#204060"/>
            <!--2.Coluna de som-->
            <rect height="150" width="80" y="255" x="130" rx="7" ry="7" stroke = "white" opacity = "1" fill="#1a0033"/>
            <circle cy="360" cx="170" r="29" fill="white"/>
            <circle cy="360" cx="170" r="25" fill="white" stroke = "#1a0033"/>
            <circle cy="360" cx="170" r="3" fill="white" stroke = "#1a0033"/>
            <circle cy="295" cx="170" r="21" fill="white"/>
            <circle cy="295" cx="170" r="15" fill="white" stroke = "#1a0033"/>
            <circle cy="295" cx="170" r="3" fill="white" stroke = "#1a0033"/>
            <!--3.Coluna de som-->
            <rect height="110" width="60" y="295" x="700" rx="7" ry="7" stroke = "white" opacity = "1" fill="#204060"/>
            <circle cy="373" cx="730" r="20" fill="white"/>
            <circle cy="373" cx="730" r="15" fill="white" stroke = "#204060"/>
            <circle cy="373" cx="730" r="3" fill="white" stroke = "#204060"/>
            <circle cy="327" cx="730" r="18" fill="white"/>
            <circle cy="327" cx="730" r="13" fill="white" stroke = "#204060"/>
            <circle cy="327" cx="730" r="3" fill="white" stroke = "#204060"/>
            <!--4.Coluna de som-->
            <rect height="150" width="80" y="255" x="600" rx="7" ry="7" stroke = "white" opacity = "1" fill="#1a0033"/>
            <circle cy="360" cx="640" r="29" fill="white"/>
            <circle cy="360" cx="640" r="25" fill="white" stroke = "#1a0033"/>
            <circle cy="360" cx="640" r="3" fill="white" stroke = "#1a0033"/>
            <circle cy="295" cx="640" r="21" fill="white"/>
            <circle cy="295" cx="640" r="15" fill="white" stroke = "#1a0033"/>
            <circle cy="295" cx="640" r="3" fill="white" stroke = "#1a0033"/>
            <!--5.Coluna de som-->
            <rect height="150" width="80" y="255" x="-50" rx="7" ry="7" stroke = "white" opacity = "1" fill="#1a0033"/>
            <rect height="130" width="70" y="265" x="-50" rx="7" ry="7" stroke = "white" opacity = "1" fill="black"/>
            <rect height="110" width="60" y="275" x="-50" rx="7" ry="7" stroke = "white" opacity = "1" fill="black"/>
            
            <!--Globo-->
            <polygon points="400,125 0,0 0,160" opacity = "0.5" fill="white">
                <animate attributeName="fill" values="#00ffff;#ffff00;#ff1a8c;#00ffff" dur="2s" repeatCount="indefinite" />
            </polygon>
            <polygon points="400,125 800,0 800,190" opacity = "0.5" fill="white">
                <animate attributeName="fill" values="#00ffff;#ffff00;#ff1a8c;#00ffff" dur="2s" repeatCount="indefinite" />
            </polygon>
            <polygon points="400,125 370,-30 480,-30" opacity = "0.5" fill="white">
                <animate attributeName="fill" values="#00ffff;#ffff00;#ff1a8c;#00ffff" dur="2s" repeatCount="indefinite" />
            </polygon>
            <polygon points="400,125 0,320 0,500" opacity = "0.5" fill="white">
                <animate attributeName="fill" values="#00ffff;#ffff00;#ff1a8c;#00ffff" dur="2s" repeatCount="indefinite" />
            </polygon>
            <polygon points="400,125 800,360 800,530" opacity = "0.5" fill="white">
                <animate attributeName="fill" values="#00ffff;#ffff00;#ff1a8c;#00ffff" dur="2s" repeatCount="indefinite" />
            </polygon>
            <circle cy="125" cx="400" r="90" stroke = "black" opacity = "1">
                <animate attributeName="fill" values="#00ffff;#ffff00;#ff1a8c;#00ffff" dur="2s" repeatCount="indefinite" />
            </circle>
            <ellipse cy="125" cx="400" ry="85" rx="90" stroke = "black" opacity = "0.7" fill="none"/>
            <ellipse cy="125" cx="400" ry="80" rx="90" stroke = "black" opacity = "0.7" fill="none"/>
            <ellipse cy="125" cx="400" ry="75" rx="90" stroke = "black" fill="none"/>
            <ellipse cy="125" cx="400" ry="70" rx="90" stroke = "black" fill="none"/>
            <ellipse cy="125" cx="400" ry="65" rx="90" stroke = "black" opacity = "0.7" fill="none"/>
            <ellipse cy="125" cx="400" ry="60" rx="90" stroke = "black" opacity = "0.7" fill="none"/>
            <ellipse cy="125" cx="400" ry="55" rx="90" stroke = "black" fill="none"/>
            <ellipse cy="125" cx="400" ry="50" rx="90" stroke = "black" fill="none"/>
            <ellipse cy="125" cx="400" ry="45" rx="90" stroke = "black" opacity = "0.7" fill="none"/>
            <ellipse cy="125" cx="400" ry="40" rx="90" stroke = "black" fill="none"/>
            <ellipse cy="125" cx="400" ry="35" rx="90" stroke = "black" fill="none"/>
            <ellipse cy="125" cx="400" ry="30" rx="90" stroke = "black" opacity = "0.7" fill="none"/>
            <ellipse cy="125" cx="400" ry="25" rx="90" stroke = "black" fill="none"/>
            <ellipse cy="125" cx="400" ry="20" rx="90" stroke = "black" fill="none"/>
            <ellipse cy="125" cx="400" ry="15" rx="90" stroke = "black" fill="none"/>
            <ellipse cy="125" cx="400" ry="10" rx="90" stroke = "black" fill="none"/>
            <ellipse cy="125" cx="400" ry="5" rx="90" stroke =  "black" opacity = "0.7" fill="none"/>
            <ellipse cy="125" cx="400" ry="3" rx="90" stroke = "black" opacity = "0.7" fill="none"/>
            <ellipse cy="125" cx="400" rx="85" ry="90" stroke = "black" fill="none"/>
            <ellipse cy="125" cx="400" rx="80" ry="90" stroke = "black" fill="none"/>
            <ellipse cy="125" cx="400" rx="75" ry="90" stroke = "black" opacity = "0.7" fill="none"/>
            <ellipse cy="125" cx="400" rx="70" ry="90" stroke = "black" fill="none"/>
            <ellipse cy="125" cx="400" rx="65" ry="90" stroke = "black" fill="none"/>
            <ellipse cy="125" cx="400" rx="60" ry="90" stroke = "black" opacity = "0.7" fill="none"/>
            <ellipse cy="125" cx="400" rx="55" ry="90" stroke = "black" fill="none"/>
            <ellipse cy="125" cx="400" rx="50" ry="90" stroke = "black" opacity = "0.7" fill="none"/>
            <ellipse cy="125" cx="400" rx="45" ry="90" stroke = "black" fill="none"/>
            <ellipse cy="125" cx="400" rx="40" ry="90" stroke = "black" fill="none"/>
            <ellipse cy="125" cx="400" rx="35" ry="90" stroke = "black" opacity = "0.7" fill="none"/>
            <ellipse cy="125" cx="400" rx="30" ry="90" stroke = "black" fill="none"/>
            <ellipse cy="125" cx="400" rx="25" ry="90" stroke = "black" fill="none"/>
            <ellipse cy="125" cx="400" rx="20" ry="90" stroke = "black" fill="none"/>
            <ellipse cy="125" cx="400" rx="15" ry="90" stroke = "black" opacity = "0.7" fill="none"/>
            <ellipse cy="125" cx="400" rx="10" ry="90" stroke = "black" fill="none"/>
            <ellipse cy="125" cx="400" rx="5" ry="90" stroke = "black" opacity = "0.7" fill="none"/>
            <ellipse cy="125" cx="400" rx="3" ry="90" stroke = "black" opacity = "0.7" fill="none"/>
            
            <!--1.Nota musical-->
            <ellipse cy="305" cx="95" rx="10" ry="5" fill="black">
                <animateMotion dur="2s" repeatCount="indefinite"
                    path="M20,30 20,0 C0 0 0,20 0,-50 z" />
            </ellipse>
            <rect height="30" width="2" y="275" x="102.5" fill="black">
                <animateMotion dur="2s" repeatCount="indefinite"
                    path="M20,30 20,0 C0 0 0,20 0,-50 z" />
            </rect>
            <!--2.Notas musical-->
            <ellipse cy="315" cx="145" rx="10" ry="5" fill="black">
                <animateMotion dur="5s" repeatCount="indefinite"
                    path="M0,80 50,0 C0 0 70,20 0,-50 z" />
            </ellipse>
            <rect height="30" width="2" y="285" x="152.5" fill="black">
                <animateMotion dur="5s" repeatCount="indefinite"
                    path="M0,80 50,0 C0 0 70,20 0,-50 z" />
            </rect>
            <!--3.Notas musical-->
            <ellipse cy="315" cx="15" rx="10" ry="5" fill="black">
                <animateMotion dur="3s" repeatCount="indefinite"
                    path="M20,0 10,40 C0 0 0,20 0,30 z" />
            </ellipse>
            <rect height="30" width="2" y="285" x="22.5" fill="black">
                <animateMotion dur="3s" repeatCount="indefinite"
                    path="M20,0 10,40 C0 0 0,20 0,30 z" />
            </rect>
            <!--4.Notas musical-->
            <ellipse cy="275" cx="555" rx="10" ry="5" fill="black">
                <animateMotion dur="5s" repeatCount="indefinite"
                    path="M30,80 10,20 C0 40 70,20 60,-50 z" />
            </ellipse>
            <rect height="30" width="2" y="245" x="562.5" fill="black">
                <animateMotion dur="5s" repeatCount="indefinite"
                    path="M30,80 10,20 C0 40 70,20 60,-50 z" />
            </rect>
            <!--5.Notas musical-->
            <ellipse cy="315" cx="675" rx="10" ry="5" fill="black">
                <animateMotion dur="2s" repeatCount="indefinite"
                    path="M20,20 10,40 C7 30 0,20 0,-30 z" />
            </ellipse>
            <rect height="30" width="2" y="285" x="682.5" fill="black">
                <animateMotion dur="2s" repeatCount="indefinite"
                    path="M20,20 10,40 C7 30 0,20 0,-30 z" />
            </rect>

            <!--Gradiente para dar mais cor ao fundo-->
            <rect height="500" width="800" y="0" x="0" opacity = "0.6" fill="url(#gradient3)"/>
                
            <!--Foco-->
            <ellipse ry="30" rx="100" cy="420" cx="172.5" opacity = "1" fill="white">
                <animateMotion dur="8s" repeatCount="indefinite"
                    path="M20,0 430,0 C0 0 0,0 0,0 z" />
            </ellipse>
            <polygon points="170,-500 72.5,420 272.5,420" opacity = "0.3" fill="white">
                <animateMotion dur="8s" repeatCount="indefinite"
                    path="M20,0 430,0 C0 0 0,0 0,0 z" />
            </polygon>

            

            <!--Personagem-->
            <g id="character">
                <!--Cabelo-->
                <rect height="120" width="45" rx="15" ry="15" y="212" x="150" stroke="saddlebrown" fill="saddlebrown"/>
                <!--Vestido com pescoço-->
                <polygon points="172.5,237.5 124,425 222,425" fill = "url(#gradient1)" />
                <!--Mão esquerda-->
                <circle cy="252" cx="241" r="5" fill="peachpuff">
                    <animateMotion dur="2s" repeatCount="indefinite"
                        path="M0,0 0,0 C0 0 0,0 0,10 z" />
                </circle>
                <!--Mão direita-->
                <circle cy="305" cx="122" r="5" fill="peachpuff">
                    <animateMotion dur="1s" repeatCount="indefinite"
                        path="M0,0 0,0 C0 0 0,0 0,5 z" />
                </circle>
                <!--Cara-->
                <circle r="18" cy="237.5" cx="172.5" fill="peachpuff"/>
                <!--Braço direito-->
                <rect transform="rotate(43, 241.5, 195)" height="50" width="10" y="303.5" x="224" fill="#ff0066">
                    <animateMotion dur="1s" repeatCount="indefinite"
                        path="M0,0 0,0 C0 0 0,0 0,5 z" />
                </rect>
                <!--Braço esquerdo-->
                <rect transform="rotate(74, 325.5, 167)" height="50" width="10" y="275" x="379" fill="#ff0066">
                    <animateMotion dur="2s" repeatCount="indefinite"
                        path="M0,0 0,0 C0 0 0,0 0,10 z" />
                </rect>
                <!--Peito/tronco-->
                <rect height="60" width="40" rx="5" ry="5" y="261" x="152.5" fill="url(#gradient2)"/>
                <!--Franja-->
                <rect height="15" width="35" y="215" rx="5" ry="5" x="154.5" stroke="saddlebrown" fill="saddlebrown"/>
                <!--Olho esquerdo-->
                <circle r="3.7" cy="236.5" cx="180.5" fill="skyblue"/>
                <!--Olho direito-->
                <circle r="3.7" cy="236.5" cx="164.5" fill="skyblue"/>
                <!--Boca-->
                <ellipse ry="5" rx="4" cy="249" cx="172.5" fill="tomato"/>
                <animateMotion dur="8s" repeatCount="indefinite"
                    path="M20,0 430,0 C0 0 0,0 0,0 z" />
            </g>
        </svg>